<?xml version="1.0" standalone="no"?>
<!DOCTYPE svg PUBLIC "-//W3C//DTD SVG 20010904//EN"
 "http://www.w3.org/TR/2001/REC-SVG-20010904/DTD/svg10.dtd">
<svg version="1.0" xmlns="http://www.w3.org/2000/svg"
 width="55.000000pt" height="55.000000pt" viewBox="0 0 55.000000 55.000000"
 preserveAspectRatio="xMidYMid meet">

<g transform="translate(0.000000,55.000000) scale(0.100000,-0.100000)"
fill="#000000" stroke="none">
<path d="M173 529 c-95 -37 -173 -151 -173 -254 0 -96 69 -203 158 -246 105
-51 246 -20 324 71 95 110 88 262 -16 366 -83 82 -186 104 -293 63z m89 -49
c4 -29 22 -30 26 -1 3 21 7 23 39 18 76 -13 157 -94 170 -170 5 -31 3 -36 -16
-39 -28 -4 -28 -22 0 -26 18 -3 20 -8 15 -35 -16 -81 -92 -157 -173 -173 -27
-5 -32 -3 -35 15 -4 29 -22 31 -26 3 -4 -29 -26 -28 -93 5 -61 32 -106 88
-115 145 -6 32 -4 37 15 40 28 4 28 22 1 26 -59 9 15 148 103 191 54 27 85 27
89 1z"/>
<path d="M370 319 c-79 -36 -109 -38 -172 -12 -65 26 -68 27 -68 14 0 -5 26
-19 58 -31 31 -13 62 -27 69 -32 13 -11 163 56 163 72 0 13 3 13 -50 -11z"/>
</g>
</svg>
